<svg xmlns="http://www.w3.org/2000/svg" width="414.542" height="79.58" viewBox="0 0 414.542 79.58">
  <g id="Group_6879" data-name="Group 6879" transform="translate(1872.854 2848.433)">
    <path id="Path_4326" data-name="Path 4326" d="M33.115,57.972,29.8,69.587,26.479,57.972a18.365,18.365,0,0,0-12.61-12.61L2.25,42.04l11.615-3.318a18.365,18.365,0,0,0,12.61-12.61L29.8,14.493l3.318,11.615a18.365,18.365,0,0,0,12.61,12.61L57.344,42.04,45.729,45.358a18.365,18.365,0,0,0-12.61,12.61ZM67.583,28.634l-1.057,4.224-1.057-4.224A13.773,13.773,0,0,0,55.45,18.611l-4.228-1.057L55.45,16.5A13.773,13.773,0,0,0,65.469,6.474L66.526,2.25l1.057,4.224A13.773,13.773,0,0,0,77.606,16.5l4.224,1.057-4.224,1.057A13.773,13.773,0,0,0,67.583,28.634ZM62.012,77,60.4,81.83,58.8,77a9.182,9.182,0,0,0-5.807-5.807l-4.828-1.608,4.828-1.608A9.182,9.182,0,0,0,58.8,62.171L60.4,57.344l1.608,4.828a9.182,9.182,0,0,0,5.807,5.807l4.828,1.608L67.82,71.195A9.182,9.182,0,0,0,62.012,77Z" transform="translate(-1875.104 -2850.683)" fill="#da291c"/>
    <path id="Path_4732" data-name="Path 4732" d="M-131.269.826a38.215,38.215,0,0,1-14.71-2.542,17.128,17.128,0,0,1-8.887-7.714q-2.781-5.171-1.478-13.081h16.774a8.549,8.549,0,0,0,.652,4.889,6.453,6.453,0,0,0,3.238,3.042,13.573,13.573,0,0,0,5.628,1.021,15.36,15.36,0,0,0,4.889-.7,8.549,8.549,0,0,0,3.324-1.934,5.086,5.086,0,0,0,1.521-2.89,3.375,3.375,0,0,0-.521-2.607,6.663,6.663,0,0,0-2.781-2.042,27.261,27.261,0,0,0-5.476-1.651l-6.3-1.347q-8.431-1.825-12.668-6.388t-2.977-12.168a21.576,21.576,0,0,1,4.867-10.69,26.041,26.041,0,0,1,9.952-7.127,35.175,35.175,0,0,1,13.776-2.564,31.563,31.563,0,0,1,13.472,2.607,17.192,17.192,0,0,1,8.148,7.388A17.577,17.577,0,0,1-99.2-44.457h-16.818a5.8,5.8,0,0,0-1.586-5.019q-1.89-1.8-6.149-1.8a14.2,14.2,0,0,0-4.563.652,7.068,7.068,0,0,0-2.977,1.8,5.121,5.121,0,0,0-1.325,2.629,3.724,3.724,0,0,0,.456,2.694,5.8,5.8,0,0,0,2.521,1.977,23.049,23.049,0,0,0,4.845,1.5l5.084,1.086a36.955,36.955,0,0,1,8.822,2.955,17.415,17.415,0,0,1,5.671,4.324,13.022,13.022,0,0,1,2.738,5.628,18.11,18.11,0,0,1,.022,6.91,22.48,22.48,0,0,1-4.715,10.864,22.7,22.7,0,0,1-9.756,6.779A40.46,40.46,0,0,1-131.269.826ZM-102.54,0l10.734-64.751h18.947l11.3,25.422q1.3,2.955,2.477,6.149t2.195,7.018Q-55.867-22.337-55-17.6l-1.825,1.13q.348-3.52.826-8.126t1-9.039q.521-4.433,1-7.388l3.955-23.728h18.078L-42.7,0H-61.691L-72.207-23.641q-1.608-3.607-2.89-7.062t-2.477-7.409q-1.2-3.955-2.586-8.909l2.26-.217q-.391,4.563-.869,9.061T-79.7-29.9q-.456,3.781-.847,6.258L-84.462,0ZM-40.7,0-8.8-64.751H15.275L26.357,0H7.018l-3.3-25.118q-1.086-8.17-1.8-16.8T.674-59.188H4.889Q1.543-50.541-1.825-41.914t-7.105,16.8L-20.36,0Zm17.687-12.038,2.216-13.3H14.841l-2.216,13.3Zm66.493,1.173,1.782-16.47q2.521-3.781,4.845-6.953t5.106-6.432Q58-43.979,61.821-48.107L77.466-64.751H99.281L66.688-31.419l-1.608-.521ZM28.359,0,39.093-64.751H57.171l-2.3,13.906L51.522-32.2l-1.173,8.561L46.437,0ZM70.121,0l-11.3-26.031L70.991-39.068,89.764,0ZM106.89-10.864l1.782-16.47q2.521-3.781,4.845-6.953t5.106-6.432q2.781-3.259,6.605-7.388l15.645-16.644h21.815L130.1-31.419l-1.608-.521ZM91.766,0,102.5-64.751h18.078l-2.3,13.906L114.929-32.2l-1.173,8.561L109.845,0Zm41.762,0-11.3-26.031L134.4-39.068,153.171,0Z" transform="translate(-1621 -2776.144)"/>
  </g>
</svg>
